<?xml version="1.0" encoding="utf-8"?>
<svg viewBox="0 0 63.959 17.392" xmlns="http://www.w3.org/2000/svg">
  <g id="black-group" style="" transform="matrix(0.482213, 0, 0, 0.482213, 0, 0)">
    <path d="M 7 0 L 8 0 L 8 1 L 7 1 L 7 0 Z" style="fill: rgb(51, 51, 51);"/>
    <path d="M 9 0 L 11 0 L 11 2 L 10 2 L 10 1 L 9 1 L 9 0 Z" style="fill: rgb(51, 51, 51);"/>
    <path d="M 4 1 L 5 1 L 5 2 L 4 2 L 4 1 Z" style="fill: rgb(51, 51, 51);"/>
    <path d="M 8 1 L 9 1 L 9 2 L 8 2 L 8 1 Z" style="fill: rgb(51, 51, 51);"/>
    <path d="M 9 2 L 10 2 L 10 4 L 9 4 L 9 2 Z" style="fill: rgb(51, 51, 51);"/>
    <path d="M 23 2 L 24 2 L 24 3 L 23 3 L 23 2 Z" style="fill: rgb(51, 51, 51);"/>
    <path d="M 24 3 L 25 3 L 25 4 L 24 4 L 24 3 Z" style="fill: rgb(51, 51, 51);"/>
    <path d="M 0 4 L 1 4 L 1 5 L 0 5 L 0 4 Z" style="fill: rgb(51, 51, 51);"/>
    <path d="M 10 4 L 11 4 L 11 6 L 10 6 L 10 4 Z" style="fill: rgb(51, 51, 51);"/>
    <path d="M 1 5 L 2 5 L 2 6 L 1 6 L 1 5 Z" style="fill: rgb(51, 51, 51);"/>
    <path d="M 3 5 L 6 5 L 6 7 L 5 7 L 5 6 L 3 6 L 3 5 Z" style="fill: rgb(51, 51, 51);"/>
    <path d="M 26 5 L 27 5 L 27 6 L 26 6 L 26 5 Z" style="fill: rgb(51, 51, 51);"/>
    <path d="M 9 6 L 10 6 L 10 8 L 9 8 L 9 6 Z" style="fill: rgb(51, 51, 51);"/>
    <path d="M 27 6 L 28 6 L 28 7 L 27 7 L 27 6 Z" style="fill: rgb(51, 51, 51);"/>
    <path d="M 28 7 L 29 7 L 29 8 L 28 8 L 28 7 Z" style="fill: rgb(51, 51, 51);"/>
    <path d="M 10 8 L 11 8 L 11 9 L 13 9 L 13 11 L 12 11 L 12 10 L 10 10 L 10 8 Z" style="fill: rgb(51, 51, 51);"/>
    <path d="M 13 8 L 14 8 L 14 9 L 13 9 L 13 8 Z" style="fill: rgb(51, 51, 51);"/>
    <path d="M 29 8 L 30 8 L 30 9 L 29 9 L 29 8 Z" style="fill: rgb(51, 51, 51);"/>
    <path d="M 6 11 L 7 11 L 7 12 L 6 12 L 6 11 Z" style="fill: rgb(51, 51, 51);"/>
    <path d="M 7 12 L 8 12 L 8 14 L 7 14 L 7 12 Z" style="fill: rgb(51, 51, 51);"/>
    <path d="M 8 14 L 9 14 L 9 15 L 8 15 L 8 14 Z" style="fill: rgb(51, 51, 51);"/>
    <path d="M 9 15 L 10 15 L 10 16 L 9 16 L 9 15 Z" style="fill: rgb(51, 51, 51);"/>
    <path d="M 11 16 L 12 16 L 12 17 L 11 17 L 11 16 Z" style="fill: rgb(51, 51, 51);"/>
    <path d="M 19 16 L 20 16 L 20 17 L 19 17 L 19 16 Z" style="fill: rgb(51, 51, 51);"/>
    <path d="M 12 18 L 13 18 L 13 19 L 12 19 L 12 18 Z" style="fill: rgb(51, 51, 51);"/>
    <path d="M 16 18 L 17 18 L 17 19 L 18 19 L 18 34 L 17 34 L 17 25 L 16 25 L 16 20 L 14 20 L 14 19 L 16 19 L 16 18 Z" style="fill: rgb(51, 51, 51);"/>
    <path d="M 13 20 L 14 20 L 14 21 L 13 21 L 13 20 Z" style="fill: rgb(51, 51, 51);"/>
    <path d="M 34 20 L 35 20 L 35 23 L 34 23 L 34 20 Z" style="fill: rgb(51, 51, 51);"/>
    <path d="M 14 21 L 15 21 L 15 24 L 14 24 L 14 21 Z" style="fill: rgb(51, 51, 51);"/>
    <path d="M 33 23 L 34 23 L 34 24 L 33 24 L 33 23 Z" style="fill: rgb(51, 51, 51);"/>
    <path d="M 20 25 L 21 25 L 21 27 L 20 27 L 20 25 Z" style="fill: rgb(51, 51, 51);"/>
    <path d="M 15 26 L 16 26 L 16 33 L 15 33 L 15 26 Z" style="fill: rgb(51, 51, 51);"/>
    <path d="M 19 27 L 20 27 L 20 34 L 19 34 L 19 27 Z" style="fill: rgb(51, 51, 51);"/>
    <path d="M 21 33 L 22 33 L 22 34 L 21 34 L 21 33 Z" style="fill: rgb(51, 51, 51);"/>
    <path d="M 31 33 L 32 33 L 32 34 L 31 34 L 31 33 Z" style="fill: rgb(51, 51, 51);"/>
    <path d="M 16 34 L 17 34 L 17 35 L 16 35 L 16 34 Z" style="fill: rgb(51, 51, 51);"/>
    <path d="M 18 34 L 19 34 L 19 35 L 20 35 L 20 36 L 17 36 L 17 35 L 18 35 L 18 34 Z" style="fill: rgb(51, 51, 51);"/>
    <path d="M 20 34 L 21 34 L 21 35 L 20 35 L 20 34 Z" style="fill: rgb(51, 51, 51);"/>
    <path d="M 23 13 L 24 13 L 24 14 L 25 14 L 25 13 L 26 13 L 26 12 L 27 12 L 27 11 L 29 11 L 29 12 L 30 12 L 30 9 L 31 9 L 31 11 L 32 11 L 32 14 L 31 14 L 31 15 L 32 15 L 32 14 L 33 14 L 33 18 L 34 18 L 34 20 L 33 20 L 33 19 L 32 19 L 32 20 L 31 20 L 31 27 L 30 27 L 30 30 L 31 30 L 31 33 L 30 33 L 30 34 L 28 34 L 28 32 L 29 32 L 29 27 L 28 27 L 28 25 L 29 25 L 29 22 L 28 22 L 28 20 L 27 20 L 27 28 L 26 28 L 26 30 L 25 30 L 25 34 L 23 34 L 23 33 L 22 33 L 22 32 L 23 32 L 23 31 L 24 31 L 24 29 L 25 29 L 25 22 L 24 22 L 24 20 L 21 20 L 21 21 L 20 21 L 20 25 L 19 25 L 19 18 L 20 18 L 20 17 L 21 17 L 21 16 L 20 16 L 20 15 L 22 15 L 22 14 L 23 14 Z" style="fill: rgb(51, 51, 51);"/>
    <path d="M 14 35 L 16 35 L 16 36 L 14 36 L 14 35 Z" style="fill: rgb(51, 51, 51);"/>
  </g>
  <g id="shadow-group" style="" transform="matrix(0.482213, 0, 0, 0.482213, 0, 0)">
    <path d="M 5 0 L 7 0 L 7 1 L 5 1 L 5 0 Z" style="fill: rgb(150, 120, 83);"/>
    <path d="M 2 1 L 4 1 L 4 2 L 2 2 L 2 1 Z" style="fill: rgb(150, 120, 83);"/>
    <path d="M 19 2 L 23 2 L 23 3 L 19 3 L 19 2 Z" style="fill: rgb(150, 120, 83);"/>
    <path d="M 0 3 L 1 3 L 1 4 L 0 4 L 0 3 Z" style="fill: rgb(150, 120, 83);"/>
    <path d="M 10 3 L 11 3 L 11 4 L 10 4 L 10 3 Z" style="fill: rgb(150, 120, 83);"/>
    <path d="M 6 8 L 7 8 L 7 11 L 6 11 L 6 8 Z" style="fill: rgb(150, 120, 83);"/>
    <path d="M 3 4 L 4 4 L 4 5 L 3 5 L 3 4 Z" style="fill: rgb(150, 120, 83);"/>
    <path d="M 25 4 L 26 4 L 26 5 L 25 5 L 25 4 Z" style="fill: rgb(150, 120, 83);"/>
    <path d="M 2 5 L 3 5 L 3 6 L 2 6 L 2 5 Z" style="fill: rgb(150, 120, 83);"/>
    <path d="M 6 5 L 7 5 L 7 6 L 6 6 L 6 5 Z" style="fill: rgb(150, 120, 83);"/>
    <path d="M 9 5 L 10 5 L 10 6 L 9 6 L 9 5 Z" style="fill: rgb(150, 120, 83);"/>
    <path d="M 10 6 L 11 6 L 11 7 L 10 7 L 10 6 Z" style="fill: rgb(150, 120, 83);"/>
    <path d="M 15 6 L 16 6 L 16 7 L 15 7 L 15 6 Z" style="fill: rgb(150, 120, 83);"/>
    <path d="M 25 6 L 26 6 L 26 7 L 25 7 L 25 6 Z" style="fill: rgb(150, 120, 83);"/>
    <path d="M 14 7 L 15 7 L 15 8 L 14 8 L 14 7 Z" style="fill: rgb(150, 120, 83);"/>
    <path d="M 26 7 L 28 7 L 28 8 L 29 8 L 29 9 L 30 9 L 30 12 L 29 12 L 29 11 L 27 11 L 27 12 L 26 12 L 26 13 L 25 13 L 25 14 L 24 14 L 24 13 L 23 13 L 23 14 L 22 14 L 22 15 L 20 15 L 20 16 L 19 16 L 19 17 L 20 17 L 20 18 L 19 18 L 19 25 L 20 25 L 20 27 L 19 27 L 19 34 L 18 34 L 18 19 L 17 19 L 17 18 L 16 18 L 16 19 L 15 19 L 15 18 L 14 18 L 14 17 L 16 17 L 16 14 L 17 14 L 17 13 L 18 13 L 18 12 L 21 12 L 21 11 L 23 11 L 23 10 L 24 10 L 24 9 L 25 9 L 25 8 L 26 8 L 26 7 Z" style="fill: rgb(150, 120, 83);"/>
    <path d="M 9 8 L 10 8 L 10 9 L 9 9 L 9 8 Z" style="fill: rgb(150, 120, 83);"/>
    <path d="M 11 10 L 12 10 L 12 11 L 11 11 L 11 10 Z" style="fill: rgb(150, 120, 83);"/>
    <path d="M 13 10 L 14 10 L 14 11 L 13 11 L 13 10 Z" style="fill: rgb(150, 120, 83);"/>
    <path d="M 31 14 L 32 14 L 32 15 L 31 15 L 31 14 Z" style="fill: rgb(150, 120, 83);"/>
    <path d="M 11 17 L 13 17 L 13 18 L 11 18 L 11 17 Z" style="fill: rgb(150, 120, 83);"/>
    <path d="M 33 17 L 34 17 L 34 18 L 33 18 L 33 17 Z" style="fill: rgb(150, 120, 83);"/>
    <path d="M 13 18 L 14 18 L 14 20 L 12 20 L 12 19 L 13 19 L 13 18 Z" style="fill: rgb(150, 120, 83);"/>
    <path d="M 34 19 L 35 19 L 35 20 L 34 20 L 34 19 Z" style="fill: rgb(150, 120, 83);"/>
    <path d="M 14 20 L 16 20 L 16 24 L 15 24 L 15 21 L 14 21 L 14 20 Z" style="fill: rgb(150, 120, 83);"/>
    <path d="M 21 20 L 22 20 L 22 21 L 21 21 L 21 20 Z" style="fill: rgb(150, 120, 83);"/>
    <path d="M 33 20 L 34 20 L 34 21 L 33 21 L 33 20 Z" style="fill: rgb(150, 120, 83);"/>
    <path d="M 20 21 L 21 21 L 21 22 L 20 22 L 20 21 Z" style="fill: rgb(150, 120, 83);"/>
    <path d="M 24 22 L 25 22 L 25 23 L 24 23 L 24 22 Z" style="fill: rgb(150, 120, 83);"/>
    <path d="M 33 22 L 34 22 L 34 23 L 33 23 L 33 22 Z" style="fill: rgb(150, 120, 83);"/>
    <path d="M 35 22 L 36 22 L 36 23 L 35 23 L 35 22 Z" style="fill: rgb(150, 120, 83);"/>
    <path d="M 14 24 L 15 24 L 15 26 L 14 26 L 14 24 Z" style="fill: rgb(150, 120, 83);"/>
    <path d="M 28 24 L 29 24 L 29 25 L 28 25 L 28 24 Z" style="fill: rgb(150, 120, 83);"/>
    <path d="M 35 25 L 33 25 L 33 24 L 34 24 L 34 23 L 35 23 Z" style="fill: rgb(150, 120, 83);"/>
    <path d="M 16 25 L 17 25 L 17 34 L 16 34 L 16 25 Z" style="fill: rgb(150, 120, 83);"/>
    <path d="M 27 25 L 28 25 L 28 27 L 27 27 L 27 25 Z" style="fill: rgb(150, 120, 83);"/>
    <path d="M 28 27 L 29 27 L 29 28 L 28 28 L 28 27 Z" style="fill: rgb(150, 120, 83);"/>
    <path d="M 30 27 L 31 27 L 31 28 L 30 28 L 30 27 Z" style="fill: rgb(150, 120, 83);"/>
    <path d="M 24 28 L 25 28 L 25 29 L 24 29 L 24 28 Z" style="fill: rgb(150, 120, 83);"/>
    <path d="M 26 28 L 27 28 L 27 29 L 26 29 L 26 28 Z" style="fill: rgb(150, 120, 83);"/>
    <path d="M 23 30 L 24 30 L 24 31 L 23 31 L 23 30 Z" style="fill: rgb(150, 120, 83);"/>
    <path d="M 25 30 L 26 30 L 26 31 L 25 31 L 25 30 Z" style="fill: rgb(150, 120, 83);"/>
    <path d="M 28 31 L 29 31 L 29 32 L 28 32 L 28 31 Z" style="fill: rgb(150, 120, 83);"/>
    <path d="M 31 32 L 32 32 L 32 33 L 31 33 L 31 32 Z" style="fill: rgb(150, 120, 83);"/>
    <path d="M 14 33 L 15 33 L 15 34 L 14 34 L 14 33 Z" style="fill: rgb(150, 120, 83);"/>
    <path d="M 22 33 L 23 33 L 23 34 L 22 34 L 22 33 Z" style="fill: rgb(150, 120, 83);"/>
    <path d="M 30 33 L 31 33 L 31 34 L 30 34 L 30 33 Z" style="fill: rgb(150, 120, 83);"/>
    <path d="M 13 34 L 14 34 L 14 35 L 13 35 L 13 34 Z" style="fill: rgb(150, 120, 83);"/>
    <path d="M 15 34 L 16 34 L 16 35 L 15 35 L 15 34 Z" style="fill: rgb(150, 120, 83);"/>
    <path d="M 17 34 L 18 34 L 18 35 L 17 35 L 17 34 Z" style="fill: rgb(150, 120, 83);"/>
    <path d="M 1 2 L 2 2 L 2 3 L 1 3 L 1 2 Z" style="fill: rgb(150, 120, 83);"/>
    <path d="M 8 3 L 9 3 L 9 4 L 8 4 L 8 3 Z" style="fill: rgb(150, 120, 83);"/>
    <path d="M 18 3 L 19 3 L 19 4 L 18 4 L 18 3 Z" style="fill: rgb(150, 120, 83);"/>
    <path d="M 17 4 L 18 4 L 18 5 L 17 5 L 17 4 Z" style="fill: rgb(150, 120, 83);"/>
    <path d="M 16 5 L 17 5 L 17 6 L 16 6 L 16 5 Z" style="fill: rgb(150, 120, 83);"/>
    <path d="M 5 7 L 6 7 L 6 8 L 5 8 L 5 7 Z" style="fill: rgb(150, 120, 83);"/>
    <path d="M 8 12 L 9 12 L 9 13 L 10 13 L 10 14 L 11 14 L 11 13 L 12 13 L 12 14 L 13 14 L 13 15 L 12 15 L 12 16 L 11 16 L 11 17 L 10 17 L 10 15 L 9 15 L 9 14 L 8 14 L 8 12 Z" style="fill: rgb(150, 120, 83);"/>
    <path d="M 15 13 L 16 13 L 16 14 L 15 14 L 15 13 Z" style="fill: rgb(150, 120, 83);"/>
    <path d="M 20 16 L 21 16 L 21 17 L 20 17 L 20 16 Z" style="fill: rgb(150, 120, 83);"/>
    <path d="M 27 20 L 28 20 L 28 21 L 27 21 L 27 20 Z" style="fill: rgb(150, 120, 83);"/>
    <path d="M 31 20 L 32 20 L 32 21 L 31 21 L 31 20 Z" style="fill: rgb(150, 120, 83);"/>
    <path d="M 28 22 L 29 22 L 29 23 L 28 23 L 28 22 Z" style="fill: rgb(150, 120, 83);"/>
    <path d="M 20 27 L 21 27 L 21 28 L 20.333 28 L 20 28 L 20 27 Z" style="fill: rgb(150, 120, 83);"/>
    <path d="M 19 34 L 20 34 L 20 35 L 19 35 L 19 34 Z" style="fill: rgb(150, 120, 83);"/>
  </g>
  <g id="camel-group" style="" transform="matrix(0.482213, 0, 0, 0.482213, 0, 0)">
    <path d="M 7 1 L 8 1 L 8 2 L 9 2 L 9 3 L 8 3 L 8 4 L 10 4 L 10 5 L 9 5 L 9 9 L 10 9 L 10 10 L 11 10 L 11 11 L 14 11 L 14 10 L 13 10 L 13 9 L 15 9 L 15 8 L 16 8 L 16 9 L 17 9 L 17 8 L 18 8 L 18 7 L 19 7 L 19 6 L 20 6 L 20 5 L 21 5 L 21 4 L 22 4 L 22 3 L 24 3 L 24 4 L 25 4 L 25 5 L 26 5 L 26 6 L 25 6 L 25 7 L 26 7 L 26 8 L 25 8 L 25 9 L 24 9 L 24 10 L 23 10 L 23 11 L 21 11 L 21 12 L 18 12 L 18 13 L 17 13 L 17 14 L 16 14 L 16 13 L 15 13 L 15 14 L 16 14 L 16 17 L 14 17 L 14 18 L 13 18 L 13 17 L 12 17 L 12 15 L 13 15 L 13 14 L 12 14 L 12 13 L 11 13 L 11 14 L 10 14 L 10 13 L 9 13 L 9 12 L 7 12 L 7 10 L 8 10 L 8 8 L 7 8 L 7 7 L 6 7 L 6 6 L 7 6 L 7 5 L 4 5 L 4 4 L 3 4 L 3 3 L 4 3 L 4 2 L 6 2 L 6 3 L 7 3 L 7 1 Z" style="fill: rgb(193, 154, 107);"/>
    <path d="M 9 1 L 10 1 L 10 2 L 9 2 L 9 1 Z" style="fill: rgb(193, 154, 107);"/>
    <path d="M 19 3 L 20 3 L 20 4 L 19 4 L 19 3 Z" style="fill: rgb(193, 154, 107);"/>
    <path d="M 1 4 L 3 4 L 3 5 L 1 5 L 1 4 Z" style="fill: rgb(193, 154, 107);"/>
    <path d="M 26 6 L 27 6 L 27 7 L 26 7 L 26 6 Z" style="fill: rgb(193, 154, 107);"/>
    <path d="M 16 7 L 17 7 L 17 8 L 16 8 L 16 7 Z" style="fill: rgb(193, 154, 107);"/>
    <path d="M 14 18 L 15 18 L 15 19 L 14 19 L 14 18 Z" style="fill: rgb(193, 154, 107);"/>
    <path d="M 33 21 L 34 21 L 34 22 L 33 22 L 33 21 Z" style="fill: rgb(193, 154, 107);"/>
    <path d="M 15 24 L 16 24 L 16 26 L 15 26 L 15 24 Z" style="fill: rgb(193, 154, 107);"/>
    <path d="M 15 33 L 16 33 L 16 34 L 15 34 L 15 33 Z" style="fill: rgb(193, 154, 107);"/>
    <path d="M 14 34 L 15 34 L 15 35 L 14 35 L 14 34 Z" style="fill: rgb(193, 154, 107);"/>
  </g>
  <g id="white-group" style="" transform="matrix(0.482213, 0, 0, 0.482213, 0, 0)">
    <path d="M 5 1 L 7 1 L 7 3 L 6 3 L 6 2 L 5 2 L 5 1 Z" style="fill: rgb(252, 250, 247);"/>
    <path d="M 2 2 L 4 2 L 4 3 L 3 3 L 3 4 L 1 4 L 1 3 L 2 3 L 2 2 Z" style="fill: rgb(252, 250, 247);"/>
    <path d="M 20 3 L 22 3 L 22 4 L 21 4 L 21 5 L 20 5 L 20 6 L 19 6 L 19 7 L 18 7 L 18 8 L 17 8 L 17 7 L 16 7 L 16 6 L 17 6 L 17 5 L 18 5 L 18 4 L 20 4 L 20 3 Z" style="fill: rgb(252, 250, 247);"/>
    <path d="M 15 7 L 16 7 L 16 8 L 15 8 L 15 7 Z" style="fill: rgb(252, 250, 247);"/>
    <path d="M 7 8 L 8 8 L 8 10 L 7 10 L 7 8 Z" style="fill: rgb(252, 250, 247);"/>
    <path d="M 14 8 L 15 8 L 15 9 L 14 9 L 14 8 Z" style="fill: rgb(252, 250, 247);"/>
    <path d="M 16 8 L 17 8 L 17 9 L 16 9 L 16 8 Z" style="fill: rgb(252, 250, 247);"/>
    <path d="M 6 7 L 7 7 L 7 8 L 6 8 L 6 7 Z" style="fill: rgb(252, 250, 247);"/>
  </g>
  <path d="M 27.899 12.813 L 26.849 12.813 L 26.849 8.703 C 26.849 8.176 26.732 7.786 26.499 7.533 C 26.272 7.273 25.909 7.143 25.409 7.143 C 24.749 7.143 24.269 7.326 23.969 7.693 C 23.669 8.06 23.519 8.656 23.519 9.483 L 23.519 12.813 L 22.469 12.813 L 22.469 6.383 L 23.319 6.383 L 23.479 7.263 L 23.539 7.263 C 23.732 6.943 24.009 6.696 24.369 6.523 C 24.729 6.35 25.126 6.263 25.559 6.263 C 26.352 6.263 26.939 6.453 27.319 6.833 C 27.706 7.22 27.899 7.816 27.899 8.623 L 27.899 12.813 ZM 34.625 12.813 L 33.855 12.813 L 33.655 11.903 L 33.605 11.903 C 33.285 12.303 32.965 12.573 32.645 12.713 C 32.325 12.86 31.925 12.933 31.445 12.933 C 30.811 12.933 30.315 12.766 29.955 12.433 C 29.595 12.1 29.415 11.63 29.415 11.023 C 29.415 9.723 30.445 9.04 32.505 8.973 L 33.595 8.933 L 33.595 8.553 C 33.595 8.066 33.488 7.706 33.275 7.473 C 33.068 7.24 32.731 7.123 32.265 7.123 C 31.925 7.123 31.601 7.173 31.295 7.273 C 30.995 7.38 30.711 7.493 30.445 7.613 L 30.125 6.823 C 30.451 6.65 30.805 6.516 31.185 6.423 C 31.565 6.323 31.945 6.273 32.325 6.273 C 33.098 6.273 33.675 6.446 34.055 6.793 C 34.435 7.133 34.625 7.68 34.625 8.433 L 34.625 12.813 Z M 31.685 12.083 C 32.271 12.083 32.735 11.923 33.075 11.603 C 33.415 11.283 33.585 10.83 33.585 10.243 L 33.585 9.663 L 32.635 9.703 C 31.895 9.736 31.355 9.856 31.015 10.063 C 30.681 10.27 30.515 10.593 30.515 11.033 C 30.515 11.373 30.615 11.633 30.815 11.813 C 31.021 11.993 31.311 12.083 31.685 12.083 ZM 39.665 6.273 C 40.511 6.273 41.165 6.566 41.625 7.153 C 42.085 7.733 42.315 8.546 42.315 9.593 C 42.315 10.66 42.081 11.483 41.615 12.063 C 41.141 12.643 40.491 12.933 39.665 12.933 C 39.231 12.933 38.845 12.853 38.505 12.693 C 38.165 12.54 37.885 12.31 37.665 12.003 L 37.585 12.003 C 37.465 12.47 37.395 12.74 37.375 12.813 L 36.615 12.813 L 36.615 3.693 L 37.665 3.693 L 37.665 5.913 C 37.665 6.353 37.648 6.793 37.615 7.233 L 37.665 7.233 C 38.098 6.593 38.765 6.273 39.665 6.273 Z M 39.485 7.143 C 38.838 7.143 38.375 7.326 38.095 7.693 C 37.808 8.066 37.665 8.69 37.665 9.563 L 37.665 9.603 C 37.665 10.483 37.808 11.113 38.095 11.493 C 38.388 11.866 38.858 12.053 39.505 12.053 C 40.085 12.053 40.518 11.843 40.805 11.423 C 41.085 10.996 41.225 10.383 41.225 9.583 C 41.225 8.77 41.081 8.16 40.795 7.753 C 40.515 7.346 40.078 7.143 39.485 7.143 ZM 49.585 9.583 C 49.585 10.636 49.319 11.456 48.785 12.043 C 48.259 12.636 47.525 12.933 46.585 12.933 C 46.005 12.933 45.489 12.796 45.035 12.523 C 44.589 12.25 44.245 11.86 44.005 11.353 C 43.759 10.846 43.635 10.256 43.635 9.583 C 43.635 8.536 43.899 7.723 44.425 7.143 C 44.945 6.556 45.679 6.263 46.625 6.263 C 47.532 6.263 48.252 6.56 48.785 7.153 C 49.319 7.753 49.585 8.563 49.585 9.583 Z M 44.725 9.583 C 44.725 10.39 44.885 11.003 45.205 11.423 C 45.525 11.843 45.995 12.053 46.615 12.053 C 47.229 12.053 47.695 11.843 48.015 11.423 C 48.335 11.003 48.495 10.39 48.495 9.583 C 48.495 8.776 48.335 8.17 48.015 7.763 C 47.689 7.35 47.215 7.143 46.595 7.143 C 45.349 7.143 44.725 7.956 44.725 9.583 ZM 54.253 6.263 C 54.539 6.263 54.793 6.286 55.013 6.333 L 54.883 7.303 C 54.643 7.25 54.409 7.223 54.183 7.223 C 53.843 7.223 53.526 7.316 53.233 7.503 C 52.946 7.69 52.719 7.95 52.553 8.283 C 52.386 8.61 52.303 8.976 52.303 9.383 L 52.303 12.813 L 51.253 12.813 L 51.253 6.383 L 52.123 6.383 L 52.233 7.553 L 52.283 7.553 C 52.529 7.133 52.819 6.813 53.153 6.593 C 53.493 6.373 53.859 6.263 54.253 6.263 ZM 57.258 6.383 L 57.258 12.813 L 56.208 12.813 L 56.208 6.383 L 57.258 6.383 Z M 56.128 4.643 C 56.128 4.403 56.188 4.233 56.308 4.133 C 56.421 4.026 56.568 3.973 56.748 3.973 C 56.908 3.973 57.051 4.026 57.178 4.133 C 57.298 4.233 57.358 4.403 57.358 4.643 C 57.358 4.87 57.298 5.04 57.178 5.153 C 57.051 5.26 56.908 5.313 56.748 5.313 C 56.568 5.313 56.421 5.26 56.308 5.153 C 56.188 5.04 56.128 4.87 56.128 4.643 ZM 63.491 11.033 C 63.491 11.64 63.267 12.106 62.821 12.433 C 62.367 12.766 61.734 12.933 60.921 12.933 C 60.074 12.933 59.401 12.796 58.901 12.523 L 58.901 11.563 C 59.607 11.91 60.291 12.083 60.951 12.083 C 61.477 12.083 61.864 11.996 62.111 11.823 C 62.351 11.65 62.471 11.42 62.471 11.133 C 62.471 10.88 62.354 10.663 62.121 10.483 C 61.887 10.31 61.474 10.11 60.881 9.883 C 60.274 9.65 59.847 9.45 59.601 9.283 C 59.361 9.116 59.181 8.93 59.061 8.723 C 58.947 8.516 58.891 8.263 58.891 7.963 C 58.891 7.436 59.104 7.023 59.531 6.723 C 59.964 6.416 60.554 6.263 61.301 6.263 C 62.034 6.263 62.717 6.406 63.351 6.693 L 63.001 7.533 C 62.347 7.26 61.757 7.123 61.231 7.123 C 60.797 7.123 60.467 7.193 60.241 7.333 C 60.014 7.473 59.901 7.663 59.901 7.903 C 59.901 8.136 59.997 8.33 60.191 8.483 C 60.384 8.636 60.841 8.85 61.561 9.123 C 62.094 9.323 62.487 9.51 62.741 9.683 C 63.001 9.856 63.191 10.05 63.311 10.263 C 63.431 10.476 63.491 10.733 63.491 11.033 Z" transform="matrix(1, 0, 0, 1, 0, 0)" style="fill: rgb(51, 51, 51); white-space: pre;"/>
</svg>